<svg xmlns="http://www.w3.org/2000/svg" viewBox="0 0 453.95 262.08">
    <defs>
        <style>.cls-1{fill:#feff32;fill-rule:evenodd;}</style>
    </defs>
    <title>staiacasa_1</title>
    <g id="Layer_2" data-name="Layer 2">
        <g id="Layer_1-2" data-name="Layer 1">
            <path class="cls-1"
                  d="M452.79,88.31c-2.14-3.2-7.13-4.43-10.05-1.19-4.56,5-11.29,5.83-17.76,6.18-8.93.49-17.89.64-26.83,1H398a46.34,46.34,0,0,1-19.19-3.42c-16.58-6.79-34-11.88-51.2-17.51-14-6.87-29.54-15.09-47-24.59a58.21,58.21,0,0,0-11.42-6.23l-7.09-3.89C216.25,13.43,173,2.84,133.64,7.14A139.66,139.66,0,0,0,65.16,33.65c-6-.24-11.3,3.71-16.18,7.77A115.53,115.53,0,0,0,37,52.84,132.36,132.36,0,0,0,8.78,102.23a6.16,6.16,0,0,0-.27,2.17,166.83,166.83,0,0,0-6.58,23.17A101.85,101.85,0,0,0,0,138.75c-.36,3.24,2,5.37,4.72,6.09q-.58,2.86-1,5.76c-.73,5.47-.51,13,1.94,18.81a101.09,101.09,0,0,0,14,40.72c32.88,52.92,81.14,47.65,142.23,41,35.51-3.88,75.15-8.2,119.56-2.4l4.85,1.07c13.09,2.93,26.53,6.15,40,7.63a6.11,6.11,0,0,0,7.73,4.41,192.81,192.81,0,0,1,22.32-4.3,196,196,0,0,0,35.12-3.21,157,157,0,0,0,25.23-6.89c2.71-.87,5.4-1.83,8.07-2.92,6.89-2.81,13.81-6.2,19.61-10.95,2.82-1.85,5.56-3.79,8.21-5.85l1.35-1.05V87.81ZM94.09,36,92,37.46a5.27,5.27,0,0,0-.4-.64C92.39,36.54,93.24,36.28,94.09,36ZM71.7,234.15c-.74-.28-1.46-.57-2.18-.87.75-.07,1.49-.17,2.23-.31A6.62,6.62,0,0,0,71.7,234.15Zm-50.62-106c.58,1.59,8.1,16.12,9.63,16.78.13.57,4.06,9.47,4.24,10-1.94-1.33-7.67-11-9.62-12.31C26.05,142.21,20.36,128.59,21.08,128.15Zm-5.51,54-.2.18c-.11-.39-.22-.78-.32-1.17C15.22,181.45,15.39,181.78,15.57,182.11ZM138.51,40.7c-1.55.95-3.08,1.93-4.62,2.89a39.81,39.81,0,0,0-10.29,3.82,6.78,6.78,0,0,0-2.14-3.47c1.56-.56,3.12-1.08,4.7-1.56s2.89-.78,4.33-1.22a110.85,110.85,0,0,1,11-2.24Zm13.38,197.11q-3.12.33-6.24.62c-3.21.3-6.48.58-9.77.84l2.89-2.23Q145.32,237.64,151.89,237.81Zm286.52-69.17q.78-2.79,1.41-5.61c-.1,6.83-.48,30.68-.58,37.51C437.44,199.56,437.16,173.07,438.41,168.64Zm.83,35.38,0,1.24a5.44,5.44,0,0,0-1.82.69l-.07,0C438,205.35,438.62,204.7,439.24,204Zm-18.42-80.79c.46-.51.94-1,1.42-1.5-.08.17-.17.33-.24.51q-1,2.94-2,5.91c-.75-.36-1.51-.7-2.27-1.05A42.14,42.14,0,0,1,420.82,123.23Zm-4.52-14.18a5,5,0,0,0-1.36-2.11c1.34,0,2.7,0,4.06,0A32.32,32.32,0,0,0,416.3,109.05Zm-112.93-30c-.15-.45-.31-.9-.48-1.34,13.12,5,26.6,9.13,40,13.56-9.17-2.15-18.37-4.18-27.62-6m33.13,158.39c-8.76,0-17.51-1.86-26-4.42l8.12-.48c8.24.12,59.82-4.09,68.06-4.63-.78,1.12-44.52,6.47-44.56,7.77Zm3.47-138c-2.34-.85-4.66-1.73-7-2.66-.59-.55-41.17-16.66-41.77-17.2.91-.68,41.81,14.28,42.74,13.75q9,2.17,17.83,4.78a45.66,45.66,0,0,1,2.76,3.67C361.54,107,356.62,106.29,351.85,105.65ZM192.27,228.32l28.15-.11,32.17,2.22a7.41,7.41,0,0,0,1.66,1.14,222.7,222.7,0,0,0-31.82-.93c-10.39.47-20.73,1.44-31.05,2.59A7.74,7.74,0,0,0,192.27,228.32Zm30.26-168.4A5.49,5.49,0,0,0,218,55.45a51.76,51.76,0,0,1-9.72-3.05,6.77,6.77,0,0,0,1.38-4.49c15.26,7.62,30.35,15.78,46.7,20.73q2.73,1.85,5.35,3.81C248.78,67.81,235.64,63.78,222.53,59.92ZM134.4,14.1a156,156,0,0,1,28.88-.42,159.37,159.37,0,0,0-30,2.38,174.38,174.38,0,0,0-21.05,2.31A137.74,137.74,0,0,1,134.4,14.1Z"/>
            <path class="cls-1"
                  d="M347.52,51.91a6.07,6.07,0,0,0,.81.65,11.56,11.56,0,0,0,1.18,3,18.85,18.85,0,0,0,9.65,8,50.2,50.2,0,0,0,12.35,7.08h0a49.23,49.23,0,0,0,18.24,3.58c15.05,0,26.11-8.54,33.44-20s2.57-18.43-2.53-27.48c-5-8.81-13.34-15.92-23.6-20l-.62-.23a5.35,5.35,0,0,0-4.67-5.3c-12.95-2.48-31.17-1.8-41.19,7.92-9,8.75-12.26,23.9-7.46,35.56A16.21,16.21,0,0,0,347.52,51.91ZM385.23,67c1.77,0,3.54-.06,5.28-.18a51.43,51.43,0,0,0,15.82-3.63A34.83,34.83,0,0,1,385.23,67ZM414.56,30.2a28.72,28.72,0,0,1,3.32,9.06c-2-3.83-5.3-6.83-8.76-9.57a25.93,25.93,0,0,0-10.75-11.07,33.74,33.74,0,0,0-6.43-5.12,6.93,6.93,0,0,0,1.32-.7q.6.21,1.2.45C403.25,16.76,410.39,22.78,414.56,30.2Z"/>
        </g>
    </g>
</svg>
