<svg xmlns="http://www.w3.org/2000/svg" viewBox="0 0 76.34 69.17">
    <title>Asset 3</title>
    <g id="Layer_2" data-name="Layer 2">
        <g id="Layer_1-2" data-name="Layer 1">
            <path d="M57.5.46h-.22C47.05.46,38.67,9.08,38.21,20h-.07C37.94,9,29.66.12,19.33,0h-.22C8.67,0,.14,9,0,20.16c-.3,25.51,37.55,49,37.55,49h.08A125.09,125.09,0,0,0,52.06,58.85a104.5,104.5,0,0,0,11.59-11,71.32,71.32,0,0,0,5.05-6.32,48.11,48.11,0,0,0,5.23-9.36,30.33,30.33,0,0,0,2.41-11.09C76.47,9.81,68,.58,57.5.46Z"/>
        </g>
    </g>
</svg>
