<svg xmlns="http://www.w3.org/2000/svg" viewBox="0 0 138.47 54.12">
    <defs>
        <style>.cls-1{fill:#3d5b96;}.cls-2{fill:#fff;}</style>
    </defs>
    <title>Asset 6</title>
    <g id="Layer_2" data-name="Layer 2">
        <g id="Layer_1-2" data-name="Layer 1">
            <rect class="cls-1" width="138.47" height="54.12" rx="8.02"/>
            <path fill="#fff"
                  d="M45.92,25.59c0-2.19-.09-4.5-.2-7.07l0-.9c0-.83,0-2-.14-2.81a4.2,4.2,0,0,0-.95-2.47,3.74,3.74,0,0,0-2.51-1c-1.1-.1-2.22-.06-3.3-.08l-7-.12c-2.68,0-5.35.21-8,.19l-1.31,0a40.31,40.31,0,0,0-7.2.2.91.91,0,0,0-.58.35.93.93,0,0,0-.14.64c-1.06,1.28-1,2.92-.88,4.51a12.48,12.48,0,0,1,0,2.45c-.06.4-.13.79-.19,1.19-.18,1.07,0,6.65,0,8-.05,3.1,0,6.24.26,9.35V38c.09,1.24.17,2.52,1.17,3.43a5.82,5.82,0,0,0,3.56,1.1l.4,0a51.86,51.86,0,0,0,9.88-.12,1,1,0,0,0,1-1c-.13-4.12.13-7.39.06-11.51a1,1,0,0,0-1-1c-.4,0-1,0-1.39-.07l0-.2a26.67,26.67,0,0,1,.08-2.85h1.92a1,1,0,0,0,1-1,16.09,16.09,0,0,1,.34-4,4.91,4.91,0,0,1,1.2-2.56,4,4,0,0,1,2.27-.43h.46c.67,0,1.38,0,2.24,0l0,0,.25,0h.18c0,.66,0,1.34,0,2-.45,0-.85.06-1.22.1l-.09,0a2.58,2.58,0,0,0-1.64.61,2.45,2.45,0,0,0-.49,1.71c0,.5,0,1,0,1.51l0,1a.91.91,0,0,0,.28.68,1,1,0,0,0,.71.32h2.38l.13,2.62h0a13.89,13.89,0,0,0-3.19.37,1,1,0,0,0-.73,1c-.06,4,0,8,.32,12a1,1,0,0,0,1,1l2,.09c1.07.06,2.17.11,3.27.11.53,0,1.07,0,1.6,0a4.74,4.74,0,0,0,2.7-.83,3.56,3.56,0,0,0,1.16-2.55A109.38,109.38,0,0,0,45.92,25.59Zm-7.65,5h.06a1,1,0,0,0,.64-.28,1,1,0,0,0,.31-.72l-.23-4.64a1,1,0,0,0-1-1h-2.3l0-1.25a.78.78,0,0,0,0-.13,4.34,4.34,0,0,1,0-.51A5.17,5.17,0,0,1,36.5,22h.18a11.51,11.51,0,0,1,1.21-.05h.34a1,1,0,0,0,1-1,30.29,30.29,0,0,0-.08-3.81,1,1,0,0,0-1-1.1,30.75,30.75,0,0,0-4.48-.1,5,5,0,0,0-3.27,1A6.79,6.79,0,0,0,28.8,20a19.31,19.31,0,0,0-.52,3.85l-1.73.08h0a1,1,0,0,0-.94.74,31.4,31.4,0,0,0-.08,5,1,1,0,0,0,1,1l1.24.17h0c.07,3.54-.21,6.21-.1,9.74a48.2,48.2,0,0,1-6.75.19l-.68,0A17.07,17.07,0,0,1,17,40.38c-1.22-.3-1.28-1.3-1.35-2.45l0-.25c-.18-2.72-.26-5.48-.24-8.19s.29-11.34.19-12.72c-.09-1.19-.2-2.53.77-3.37a.68.68,0,0,0,.12-.12,43.63,43.63,0,0,1,5.24,0l1,0c2.1,0,8.8-.2,10-.19,2.94,0,6,0,9,.19.81,0,1.4.19,1.65.83a6,6,0,0,1,.27,2c0,.2,0,.68,0,.87.11,2.43.19,4.55.23,6.49.11,4.7,0,8.85-.22,12.69,0,.27,0,.54,0,.82a23.65,23.65,0,0,1-.25,2.67c-.16,1-.74,1.23-1.63,1.32a17.36,17.36,0,0,1-2.6,0l-.83,0-2.76-.09c-.21-3.37-.3-6.79-.27-10.16A11.9,11.9,0,0,1,38.27,30.57Z"/>
            <path fill="#fff"
                  d="M63.71,38.24a8.14,8.14,0,0,1-.87-.05,6.16,6.16,0,0,1-5.42-5.61.88.88,0,0,1,.2-.7,1.06,1.06,0,0,1,.78-.3,1.17,1.17,0,0,1,1.23,1.08,3.89,3.89,0,0,0,2.95,3.24,4.68,4.68,0,0,0,1.19.15,6.29,6.29,0,0,0,3.85-1.43,1.86,1.86,0,0,0,.84-2.11,5.31,5.31,0,0,0-1.12-2A8.28,8.28,0,0,0,64,28.4l-1-.43c-1.43-.65-6-3.08-4.12-7.14A6.66,6.66,0,0,1,64.87,17a6.36,6.36,0,0,1,1.24.12,6.18,6.18,0,0,1,4.21,3.16,3.76,3.76,0,0,1,0,3.47.85.85,0,0,1-.78.54,1.33,1.33,0,0,1-1.06-.62,1.06,1.06,0,0,1,0-1.09c.48-1-.55-2-.87-2.32a4.11,4.11,0,0,0-2-1,3.94,3.94,0,0,0-.77-.08,4.5,4.5,0,0,0-3.48,1.75,3.23,3.23,0,0,0-.8,2.05,2.64,2.64,0,0,0,1.11,1.67,13,13,0,0,0,3.5,1.9l1,.4c2.48,1.09,5.51,4.32,4.52,7.3-.84,2.52-4.17,4-6.91,4Z"/>
            <path fill="#fff"
                  d="M84.69,38.49a1.18,1.18,0,0,1-.84-.39.94.94,0,0,1-.27-.68,41.88,41.88,0,0,0-.41-10.79,1.79,1.79,0,0,0-1-1.53,3.81,3.81,0,0,0-.44-.15l-.07,0h0l-.24-.05,0,0a2.68,2.68,0,0,0-.4,0h-.43c-2.82.52-2.93,2.08-3,2.15l-.16.15,0,.26c0,3.12-.15,6-.32,8.87a1.14,1.14,0,0,1-1.21,1.07,1.09,1.09,0,0,1-.79-.3,1,1,0,0,1-.22-.71c.39-6.53.46-13.15.2-19.69a1,1,0,0,1,.24-.72,1.19,1.19,0,0,1,2,.77c.07,1.87.12,3.85.14,6.24v.89l.78-.43a6.31,6.31,0,0,1,3-.78,4.19,4.19,0,0,1,3.53,1.74,6,6,0,0,1,.81,2.76l0,.21c.16,1.18.27,2.27.34,3.33a49.84,49.84,0,0,1,0,6.69A1.13,1.13,0,0,1,84.69,38.49Z"/>
            <path fill="#fff"
                  d="M100,38.34a1.07,1.07,0,0,1-1-.66l-.12-.36h-.56l-.29.06-.27.06h-.07a9,9,0,0,1-.9.18,6.55,6.55,0,0,1-1.06.08,6.37,6.37,0,0,1-1.37-.14,5.53,5.53,0,0,1-3.18-1.9A2.94,2.94,0,0,1,91.17,32a6.51,6.51,0,0,1,3.28-2l2.65-.79,1.14-.33h.14l.43-.09V27.55c0-.47,0-.95,0-1.42V26a2.79,2.79,0,0,0-.12-.85l-.14-.31a1.59,1.59,0,0,0-1.27-.4c-.36,0-.71,0-1,.07a7.65,7.65,0,0,0-4,1.86,1.26,1.26,0,0,1-.83.33,1,1,0,0,1-.75-.31,1.15,1.15,0,0,1-.32-.85,1,1,0,0,1,.3-.69,9.81,9.81,0,0,1,5.14-2.47,9.18,9.18,0,0,1,1.34-.11c1.9,0,3.06.68,3.58,2.08a7.37,7.37,0,0,1,.28,2.5l0,10.47a1,1,0,0,1-.27.73,1.13,1.13,0,0,1-.81.31Zm-6.51-3.45.23.13.34.18.16.06a6,6,0,0,0,.8.22l.08,0h.11l.28,0h.82l.12,0,.39-.08a11.4,11.4,0,0,1,1.57-.26l.49,0V31l-1.31.38c-.8.24-1.61.47-2.4.72q-.42.12-.81.27l-.06,0-.19.09-.29.14-.37.22-.11.08,0,0-.18.17s-.16.17-.16.17l0,0-.11.16-.06.09,0,.21V34l0,.13.06.09,0,.07,0,.07.1.12A3.35,3.35,0,0,0,93.44,34.89Z"/>
            <path fill="#fff"
                  d="M107,37.9a1.06,1.06,0,0,1-1.12-1.06c0-4.46-.13-9-.3-13.43a1,1,0,0,1,.3-.72,1.15,1.15,0,0,1,.81-.37,1.14,1.14,0,0,1,1.1,1.13v.24l0,1,.82-.63a4.51,4.51,0,0,1,.77-.5,6,6,0,0,1,1.69-.56,7.33,7.33,0,0,1,1-.08,7.19,7.19,0,0,1,1.1.09,1.08,1.08,0,0,1,.61.51,1.12,1.12,0,0,1-.41,1.5,1,1,0,0,1-.52.13h0l-.26,0h0l-.35,0-.61,0h0a6.11,6.11,0,0,0-.89.24l0,0a5.51,5.51,0,0,0-.82.48l0,0a12.68,12.68,0,0,0-1,1l-.48.5-.1.06-.1.06-.27.16V28c.1,3.4.15,6.21.16,8.83a1,1,0,0,1-.26.73A1.17,1.17,0,0,1,107,37.9Z"/>
            <path fill="#fff"
                  d="M122.19,37.36A6.22,6.22,0,0,1,119,36.5a6.91,6.91,0,0,1-3.25-5.27l0-.18-.12-.12a1.11,1.11,0,0,1-.31-.75,1.05,1.05,0,0,1,.27-.68l.11-.14v-.17a5.89,5.89,0,0,1,2.72-5,5.8,5.8,0,0,1,3-.83,5.1,5.1,0,0,1,3.11,1,6,6,0,0,1,2.29,6,1.15,1.15,0,0,1-1.06.78l-7.78.09.19.67a4.55,4.55,0,0,0,.69,1.53,8,8,0,0,0,.82.83l.24.16.23.14.17.09a7.31,7.31,0,0,0,1,.37l.24.06.17,0,.4,0h.51l.31-.05a6.89,6.89,0,0,0,.75-.18l.32-.12H124a5.86,5.86,0,0,0,.64-.36l.27-.18,0,0,.14-.13a1.34,1.34,0,0,1,.85-.33,1,1,0,0,1,.74.31A1.18,1.18,0,0,1,127,35a.94.94,0,0,1-.3.68,6.83,6.83,0,0,1-4.5,1.73Zm-4.19-9v.1l-.07.59.6,0,6.29-.07-.16-.65,0-.09a1.46,1.46,0,0,0,0-.2l-.09-.28h0l-.09-.2A4.48,4.48,0,0,0,124,27l-.13-.18-.21-.23s-.09-.08-.15-.14l-.15-.14,0,0-.05,0a5.08,5.08,0,0,0-.43-.27l-.08-.05-.14-.1-.09,0-.29-.09-.31-.07h-.11a3.71,3.71,0,0,0-.47,0H121l-.08,0a5.08,5.08,0,0,0-.59.15l-.2.06-.16.07c-.18.09-.37.2-.56.32l-.14.09-.06,0-.1.12-.42.41-.07.08-.16.25a1.43,1.43,0,0,0-.11.22A8,8,0,0,0,118,28.32Z"/>
        </g>
    </g>
</svg>
