<svg xmlns="http://www.w3.org/2000/svg" viewBox="0 0 16 13.98">
    <defs>
        <style>
            path {
            fill: black;
            }
            @media (prefers-color-scheme: dark) {
            path{
            fill: white;
            }
            }
        </style>
    </defs>
    <g id="Layer_2" data-name="Layer 2">
        <g id="Layer_1-2" data-name="Layer 1">
            <path d="M2.73,13a1.83,1.83,0,0,1-1.11,0c-.44-.1-.44-.48-.51-.87a11.6,11.6,0,0,1-.18-2.2,14.62,14.62,0,0,1,.16-2.56c.07-.32.11-.81.44-1a2.48,2.48,0,0,1,1-.07c.31,0,.43-.1.45-.42s-.07-.38-.14-.43l-.29-.11A1.44,1.44,0,0,0,2,5.24a2.16,2.16,0,0,0-.76.14,1.61,1.61,0,0,0-.65.55A2.86,2.86,0,0,0,.17,7a11.91,11.91,0,0,0-.1,1.53c0,.15,0,.3,0,.45,0,.44,0,.88,0,1.3a11,11,0,0,0,.13,1.52,3.92,3.92,0,0,0,.39,1.58,1.4,1.4,0,0,0,.58.46,1.31,1.31,0,0,0,.43.16,1.83,1.83,0,0,0,.52,0,2.72,2.72,0,0,0,1.15-.21C3.74,13.51,3.27,12.71,2.73,13Z"/>
            <path d="M11.22,12.91A2.27,2.27,0,0,1,10,13c-.44-.1-.52-.5-.59-.89a12.23,12.23,0,0,1-.18-2.26A12.64,12.64,0,0,1,9.4,7.43c.07-.33.11-.88.44-1a2.34,2.34,0,0,1,.95-.11q.46,0,.45-.36a.21.21,0,0,0,0-.13.31.31,0,0,0,0-.19.52.52,0,0,0-.16-.17l-.29-.11a1.44,1.44,0,0,0-.49-.08,1.78,1.78,0,0,0-.68.15A1.63,1.63,0,0,0,9,5.94a2.69,2.69,0,0,0-.45,1,15.76,15.76,0,0,0-.22,1.91c0,.44,0,.94,0,1.36a11,11,0,0,0,.13,1.52,3.92,3.92,0,0,0,.39,1.58,1.4,1.4,0,0,0,.58.46,1.31,1.31,0,0,0,.43.16,1.83,1.83,0,0,0,.52,0,2.72,2.72,0,0,0,1.15-.21C12,13.51,11.76,12.66,11.22,12.91Z"/>
            <path d="M7.55,5.61s0-.06,0-.09v-.1a.18.18,0,0,0-.08-.19.29.29,0,0,0-.22-.05h0a.4.4,0,0,0-.53.43c0,1.4.06,2.73.09,4.12a14,14,0,0,1,0,1.94,3.47,3.47,0,0,1-.15.78.82.82,0,0,1-.84.59,1.34,1.34,0,0,1-.8-.28c-.19-.21-.45-.33-.38-2.76,0-1.42,0-2.87,0-4.29a.44.44,0,1,0-.87,0v.42c0,.27,0,.62,0,1s0,.87,0,1.37,0,1,0,1.44,0,.9,0,1.29a5.76,5.76,0,0,0,.05.67,4,4,0,0,0,.15.7,2.84,2.84,0,0,0,.34.7,1.24,1.24,0,0,0,.47.44A2.73,2.73,0,0,0,6.23,14a1.34,1.34,0,0,0,1.13-1,5.59,5.59,0,0,0,.29-2.07C7.65,9.12,7.58,7.4,7.55,5.61Z"/>
            <path d="M16,8.18c-.05-.89-.06-1.51-.16-2.67,0-.32-.28-.34-.51-.32s-.41,0-.42.31c0,.71.13,1.42.14,2.14s.09,3.17,0,3.87a5.51,5.51,0,0,1-.15,1c-.12.42-.38.53-.8.53-.26,0-.73,0-.88-.25a2.93,2.93,0,0,1-.3-.95,12.19,12.19,0,0,1-.14-1.91c0-1.4.16-2.93,0-4.32,0-.32-.3-.34-.53-.32s-.36,0-.34.31c.18,1.72-.17,3.59,0,5.3a10.22,10.22,0,0,0,.22,1.74c.21.81.56,1.07.8,1.17a2.81,2.81,0,0,0,1.41.15,1.49,1.49,0,0,0,1.33-1A22.41,22.41,0,0,0,16,8.18Z"/>
            <path d="M11,1.28c0-.12-.35-.15-.94-.27h0A1.7,1.7,0,0,0,9.33.24a2.7,2.7,0,0,0-2.5.21L6.6.54a9.07,9.07,0,0,1-3.08.55A4.09,4.09,0,0,1,.61.42.33.33,0,0,0,.09.51a.52.52,0,0,0,.08.68A4.34,4.34,0,0,0,3,2,11.25,11.25,0,0,0,6.33,1.6,4.86,4.86,0,0,0,7,1.32C7.8.91,8.56.57,9.15,1.07a.82.82,0,0,1,.21.6.75.75,0,0,1-.18.54.83.83,0,0,1-1,.21c-.37-.14-.61.25-.73.52a1.38,1.38,0,0,1-.66.59,2.45,2.45,0,0,1-1.18.19A2.79,2.79,0,0,1,3.54,2.51.34.34,0,0,0,3,2.44a.54.54,0,0,0-.07.68A3.57,3.57,0,0,0,5.8,4.64H6A3,3,0,0,0,7.65,4a1.63,1.63,0,0,0,.56-.88,1.44,1.44,0,0,0,1.71-.61,1.49,1.49,0,0,0,.2-.67C10.37,1.8,11,1.44,11,1.28Z"/>
            <path d="M8,1.76c.13.44.89.22.77-.22S7.86,1.32,8,1.76Z"/>
        </g>
    </g>
</svg>
