<svg xmlns="http://www.w3.org/2000/svg" viewBox="0 0 76.34 69.17">
    <title>Asset 1</title>
    <g id="Layer_2" data-name="Layer 2">
        <g id="Layer_1-2" data-name="Layer 1">
            <path d="M57.5.46h-.22C47.05.46,38.67,9.08,38.21,20h-.07C37.94,9,29.66.12,19.33,0h-.22C8.67,0,.14,9,0,20.16c-.3,25.51,37.55,49,37.55,49h.08A125.09,125.09,0,0,0,52.06,58.85a104.5,104.5,0,0,0,11.59-11,71.32,71.32,0,0,0,5.05-6.32,48.11,48.11,0,0,0,5.23-9.36,30.33,30.33,0,0,0,2.41-11.09C76.47,9.81,68,.58,57.5.46Zm8.1,28.29a39.16,39.16,0,0,1-4.26,7.59,60.41,60.41,0,0,1-4.41,5.51,94.42,94.42,0,0,1-10.58,10c-3.25,2.68-6.3,4.89-8.66,6.51C27,50.69,8.83,34.56,9,20.27,9.08,14.05,13.61,9,19.11,9h.11a9.48,9.48,0,0,1,6.89,3.2,11.69,11.69,0,0,1,1.55,2.16,11.43,11.43,0,0,0,9.92,6.11h1.57a11.24,11.24,0,0,0,9.67-5.81,9.88,9.88,0,0,1,8.46-5.2h.11a9.5,9.5,0,0,1,6.89,3.2A12,12,0,0,1,67.34,21,21.45,21.45,0,0,1,65.6,28.75Z"/>
        </g>
    </g>
</svg>
