<svg xmlns="http://www.w3.org/2000/svg" viewBox="0 0 485.04 223.1">
    <defs>
        <style>.cls-1{fill:#fff;}</style>
    </defs>
    <title>Asset 5</title>
    <g id="Layer_2" data-name="Layer 2">
        <g id="Layer_1-2" data-name="Layer 1">
            <path d="M226.12,152.21q-.21-15-1.42-29.91c-.79-9.69-.12-20.73-.57-30.44-.51-10.88.62-10.39.58-24.91,0-7.52-7-10.51-9.37-10.39-29.76,1.47-53.65,2-83.44,2.13S72.33,58.3,42.56,57.1Q30.21,56.59,17.87,56c-4-.22-10.11-1.18-13.82.67C.73,58.28.66,62.19,1.44,65.84,3.72,76.48.36,97.37,1.5,97.75.78,120.53.38,129.33.16,136.2c-.62,19.75.78,25,.39,37.28-.19,6.09-.39,12.19-.39,18.29,0,5.85-.11,12,.91,17.76a10,10,0,0,0,3.85,6.55c2.26,1.59,5.11,1.84,7.75,2.25q9,1.42,18.08,2.38c11.89,1.27,23.85,1.95,35.81,2.19,24,.47,48.05.17,72-1.73,12-.95,24.24,1.06,36.23,0,2.55-.24,5.11-.51,7.67-.77l32.09-.44,2.09-.06c5.57.27,7.26-7.17,7.5-9.08C226.62,190.72,226.4,172.42,226.12,152.21Z"/>
            <path class="cls-1"
                  d="M32.33,87.26c-2,0-4,.71-5-.26s-.93-3.21-.93-4.37a5,5,0,0,1,1.47-3.37,7,7,0,0,1,4.43-2q2.73-.39,8.84-.68t12.64,0a67.44,67.44,0,0,1,12,1.54q5.47,1.26,7.16,3.76,2.75,4.44,4.43,13.78a201.55,201.55,0,0,1,2.52,21.2q.84,11.85,1.06,25.06t0,25.15q-.21,11.94-.42,21.49c-.15,6.36-.21,11-.21,14a2.43,2.43,0,0,1-1.8,2.41,8.3,8.3,0,0,1-3.79.48,11.53,11.53,0,0,1-3.68-1c-1.13-.52-1.62-1.16-1.48-1.93.28-1.67,1.3-6,.17-6.63-.42-.12-3.26.78-6.06,1.81s-6.22,2.09-10.22,3.18a94.51,94.51,0,0,1-12.74,2.51,29.47,29.47,0,0,1-12.43-.87,17.45,17.45,0,0,1-9.37-7q-3.67-5.29-3.26-15.9.21-7.69,4.11-12a22.33,22.33,0,0,1,9.47-6.27,40.81,40.81,0,0,1,12.22-2.11,116.13,116.13,0,0,1,12.53.28c3.93.33,7.3.71,10.11,1.16s4.49.55,5.05.29,1-1.83,1.27-5.11.42-7.32.42-12.14-.14-10-.42-15.71-.67-11-1.16-16.19S68.2,102.1,67.5,98.24,66,92,65,90.92a10.77,10.77,0,0,0-6.32-3.37,50.2,50.2,0,0,0-9-1c-3.24-.06-6.43,0-9.59.29S34.29,87.26,32.33,87.26Zm38,84.22c-.56-.25-3.35-.29-5.59-.87a80.15,80.15,0,0,0-8-1.54,92.28,92.28,0,0,0-9.8-.87,40.73,40.73,0,0,0-9.47.68A16.93,16.93,0,0,0,30.33,172c-1.9,1.48-2.64,3.58-2.85,6.27C26.4,192,32.88,192.74,36,193.38s8.68.17,12.26-.41a59.79,59.79,0,0,0,10.11-2.51,73.52,73.52,0,0,0,8.1-3.27c2.25-1.09,3.51-1.9,3.8-2.41C70.66,184,71.19,172,70.35,171.48Z"/>
            <path class="cls-1"
                  d="M94,79.74a3.35,3.35,0,0,1,.63-2.7,5.11,5.11,0,0,1,2.22-1.44,14,14,0,0,1,2.94-.68,31.66,31.66,0,0,0,3.27-.57c.7-.13,2.49-.29,5.37-.49a64.11,64.11,0,0,1,10.21.29,61.56,61.56,0,0,1,12.54,2.7,33.65,33.65,0,0,1,12,6.84A34.54,34.54,0,0,1,152,96.32a46.33,46.33,0,0,1,4,20q-.63,13.5-3.9,22.36a43.88,43.88,0,0,1-8.32,14.45,37.51,37.51,0,0,1-12.26,8.38,54.74,54.74,0,0,1-12.32,4c-1,.26-1.37.51-1.16.77a3.2,3.2,0,0,0,1.16.77q12.21,6.16,21.37,10.21t10.85,5a3.12,3.12,0,0,1,1.37,3,8.66,8.66,0,0,1-1.16,3.85,7.68,7.68,0,0,1-2.95,2.9,4.18,4.18,0,0,1-3.79.28,31.74,31.74,0,0,1-5.37-2.89c-2.74-1.66-5.93-3.66-9.58-6s-7.55-4.79-11.69-7.42l-11.69-7.42c-.71-.64-1.2-.9-1.48-.77a2.8,2.8,0,0,0-.63.38q-.63.59-.84,5.5t-.42,10.79q-.21,5.88-.42,11.18c-.14,3.53.42,7.48,0,8.25-.71,1.67-9.13,1.69-9.83.27-.42-.77.1-11.64,0-16.52s0-11.11.11-18.7.35-16.89.63-27.94q.21-10.41.42-20.53t.21-18.6V87.45Q94.24,81.48,94,79.74Zm9.48,56.37c.14,4.57.24,8.42.32,11.57s.1,4.85.1,5.11a12.76,12.76,0,0,0,.11,1.54,6,6,0,0,0,.42,1.73,3,3,0,0,0,1.16,1.35,3.66,3.66,0,0,0,2.52.39q1,0,4.32-.39a47.77,47.77,0,0,0,7.37-1.54,43.07,43.07,0,0,0,8.74-3.66,30.44,30.44,0,0,0,8.43-6.84,36.26,36.26,0,0,0,6.31-10.89,48.1,48.1,0,0,0,2.74-16.19q0-9.65-2.31-15.71a24.81,24.81,0,0,0-6.22-9.64,23.93,23.93,0,0,0-8.42-5.1,38,38,0,0,0-8.85-1.93,45.64,45.64,0,0,0-7.79-.1c-2.32.2-7.09.52-7.37,1S103.37,131.56,103.51,136.11Z"/>
            <path class="cls-1"
                  d="M181.43,77.62a3,3,0,0,1,1.79-3.08,10.43,10.43,0,0,1,4.43-1.35,8.33,8.33,0,0,1,4.52.87,3.66,3.66,0,0,1,2.11,3.56q0,1.74-.32,8.1t-.84,14.93q-.52,8.58-1,18.22t-.73,17.82q-.31,8.2-.32,13.69c0,3.66.14,5.56.42,5.68a5.66,5.66,0,0,0,2.42.48,40.08,40.08,0,0,0,4.11,0c1.54-.06,3.16-.16,4.84-.29s3.3-.25,4.85-.38a3.19,3.19,0,0,1,3.16,1.35,6.78,6.78,0,0,1,1.16,3.47,9.17,9.17,0,0,1-.53,3.66c-.42,1.16-1,1.73-1.69,1.73s-2.21,0-4.1-.09-3.83-.1-5.79-.1a33.84,33.84,0,0,0-5.37.39,5.14,5.14,0,0,1-3.29-1s-.05,4.36-.19,6.55-.18,4.59-.1,7.22a61.81,61.81,0,0,0,.63,7.62c.35,2.44.87,4.11,1.58,5a8.25,8.25,0,0,0,6,3.18,55.25,55.25,0,0,0,7.27.09,2.89,2.89,0,0,1,2.73,1.54,7.16,7.16,0,0,1,.85,3.47,6.53,6.53,0,0,1-1.16,3.67,3.74,3.74,0,0,1-3.27,1.73h-5.26a27.66,27.66,0,0,1-6-.67,16.88,16.88,0,0,1-5.9-2.61,14.58,14.58,0,0,1-4.74-5.59,22.51,22.51,0,0,1-2.32-8.47,81.53,81.53,0,0,1-.31-9.26c.07-3-.11-11.56-.11-11.56a8.68,8.68,0,0,0-2.32-.87,23.48,23.48,0,0,0-3.89-.29c-1.48,0-3,0-4.53.1s-3,.1-4.42.1A3.28,3.28,0,0,1,162.9,165a4.88,4.88,0,0,1-.84-2.79,5.89,5.89,0,0,1,.84-3,3.72,3.72,0,0,1,2.32-1.83,13.57,13.57,0,0,1,3.79-.29c1.54.07,3.08.1,4.63.1a38.65,38.65,0,0,0,4.11-.19,2.36,2.36,0,0,0,2.21-1.35,64,64,0,0,0,.53-6.46c.21-3.79.34-8.45.42-14s.17-11.47.31-17.83.25-12.36.32-18,.07-10.47,0-14.45S181.43,78.52,181.43,77.62Z"/>
            <path d="M282.51,190.92c-5.06,2.32-11.57,1.19-16.84,0-6.73-1.55-6.71-7.32-7.75-13.31A167.09,167.09,0,0,1,255.15,144c.17-12.24,0-27.07,2.42-39.07,1-5,1.7-12.32,6.75-14.81,4-2,10.55-1.08,14.91-1,4.78.07,6.52-1.57,6.83-6.5.3-6.16-1-5.79-2.17-6.48a34.47,34.47,0,0,0-4.33-1.76A22.4,22.4,0,0,0,272,73.26c-2.89,0-8.19.58-11.58,2s-6.71,4.24-10,8.39q-4.34,5.58-7,15.63c-1.76,6.7-.84,15.23-1.59,23.31-.22,2.28-.38,4.6-.51,6.93-.44,6.7-.55,13.38-.48,19.82a168.17,168.17,0,0,0,2,23.17c1,7.82,1.89,17.06,6,24.06,4,6.8,13,9.11,15.32,9.5a33.56,33.56,0,0,0,8,.36,42.54,42.54,0,0,0,17.42-3.28C298,199.39,290.77,187.15,282.51,190.92Z"/>
            <path d="M412.14,190.23c-5.07,2.31-13.69,2.13-19,.92-6.73-1.55-7.9-7.56-8.94-13.55A177.09,177.09,0,0,1,381.48,143c.17-12.24.4-24.45,2.85-36.46,1-4.94,1.7-13.31,6.75-15.8,4-2,10.11-1.7,14.48-1.64,4.78.07,7.06-1.79,6.83-5.5a4.58,4.58,0,0,0,.83-2.1,4.83,4.83,0,0,0-.56-2.9,6.45,6.45,0,0,0-2.45-2.48,33.49,33.49,0,0,0-4.32-1.76,22.5,22.5,0,0,0-7.53-1.14A28.72,28.72,0,0,0,388,75.43q-5.08,2.17-10,8.39-4.33,5.59-7,15.64c-1.75,6.7-3.13,26.76-3.27,29.09-.43,6.7-.54,14.38-.47,20.82a169.73,169.73,0,0,0,1.94,23.17c1,7.82,1.94,17,6,24.06,4.33,7.46,13,9.11,15.32,9.5a33.56,33.56,0,0,0,8,.36A42.46,42.46,0,0,0,416,203.18C424.3,199.39,420.39,186.45,412.14,190.23Z"/>
            <path d="M356.06,78.9a8.57,8.57,0,0,0-.15-1.38c0-.69.06-1.21.1-1.52a3,3,0,0,0-1.32-3,5,5,0,0,0-3.29-.72l-.41.07c-4.12-1.14-8.23,1-8.12,6.56.43,21.28.87,41.56,1.3,62.85.22,10.84.76,18.75-.34,29.56a63.6,63.6,0,0,1-2.43,12,12.31,12.31,0,0,1-12.71,8.87c-3.47-.14-9.75-1.5-12.23-4.22-2.88-3.16-6.81-5-5.77-42.06.61-21.62.05-43.84.08-65.47,0-9.13-13.18-9.15-13.19,0,0,1.16,0,2.32,0,3.47,0,.85,0,1.82-.09,2.94q-.19,6.23-.38,15.74t-.37,20.82q-.19,11.29-.1,22.06t.29,19.68a69.87,69.87,0,0,0,.75,10.25A57.87,57.87,0,0,0,300,186a40.5,40.5,0,0,0,5.17,10.67,19.39,19.39,0,0,0,7.13,6.72c3.38,2.07,12.47,4.09,23.64,2.67,8.31-1.09,14.17-6.15,17.31-14.71,3.94-10.71,4.37-20.4,4.37-31.65C357.68,132.45,356.62,106.15,356.06,78.9Z"/>
            <path d="M484.73,118.05c-.81-13.58-1-23-2.51-40.78-.41-4.77-4.16-5.07-7.7-4.88-3.22.18-6.26.43-6.49,4.77-.58,10.86,2,21.76,2.2,32.64.19,9.89,1.42,48.34.18,59.14-.58,5-.86,10.2-2.27,15-1.88,6.38-5.77,8.1-12.23,8.09-4.05,0-11.11.2-13.37-3.87a45.47,45.47,0,0,1-4.7-14.45,195.64,195.64,0,0,1-2.09-29.17c-.24-21.33,2.47-44.6.29-65.9-.5-4.88-4.62-5.17-8.13-4.79-3,.31-5.49.52-5.06,4.69,2.69,26.27-2.69,54.7.42,80.92,1.06,9,.62,16.48,3.27,26.42,3.33,12.46,8.59,16.36,12.25,18a43.75,43.75,0,0,0,21.61,2.2c9.26-.86,16.43-5.25,20.18-14.63C485.06,180.24,485.5,131.18,484.73,118.05Z"/>
            <path d="M400.6,18c0-1.69-4.88-2.15-13.05-3.81l-.59-.12a23.67,23.67,0,0,0-9.62-10.75c-11.93-6.91-24.07-1.68-34.8,3l-3.13,1.34c-14,5.89-28.89,7-42.92,7.7-13.47.64-28.82.5-40.46-9.4-2.4-2-5.43-1.52-7.21,1.25S247,14.23,250,16.73c12.53,10.66,28.55,11.78,39.51,11.7,14.09-.1,30.59-.87,46.13-5.84a57.4,57.4,0,0,0,9.81-4c10.72-5.75,21.19-10.5,29.44-3.42,2.19,1.88,3,5.64,3,8.34.06,2.53-.71,5.8-2.58,7.73-4.78,4.95-9.39,4.7-14.09,2.85-5.05-2-8.36,3.63-10.06,7.31-1.49,3.22-5.34,6.67-9.23,8.38a33.79,33.79,0,0,1-16.39,2.68c-11.22-.85-21.69-7.09-28.72-17.11-1.88-2.68-4.94-3.05-7.27-.88a7.44,7.44,0,0,0-1,9.56c9.4,13.4,24.42,21.44,39.75,21.44,1,0,1.9,0,2.84-.09,8.84-.58,16.95-3.57,22.85-8.42a23.74,23.74,0,0,0,7.85-12.42c9.32,3,18.53-.14,23.74-8.6,2.61-4.25,2.78-9.36,2.87-9.39C391.89,25.31,400.6,20.3,400.6,18Z"/>
            <path d="M358.64,24.77c1.76,6.18,12.37,3.17,10.6-3S356.87,18.59,358.64,24.77Z"/>
        </g>
    </g>
</svg>
