<svg xmlns="http://www.w3.org/2000/svg" viewBox="0 0 191.88 64.17"><title>Asset 3</title><g id="Layer_2" data-name="Layer 2"><g id="Layer_1-2" data-name="Layer 1"><path d="M35.18,19.87c0-1.49-.52-2.24-1.57-2.24a4.25,4.25,0,0,0-1.42.3c-.55.2-1.07.37-1.57.52a15.41,15.41,0,0,0-4.3,3.26c-1,1.17-4.68,5.16-5.73,6.6A26.71,26.71,0,0,0,17.9,33a31.44,31.44,0,0,0-1.72,4.63q-2.17,8,1.64,10.77a5.39,5.39,0,0,0,3.33,1.08A5.49,5.49,0,0,0,24,48.72c.72-.44,1.43-.87,2.13-1.27a7.93,7.93,0,0,1,2.43-.86A7.31,7.31,0,0,1,32,47c1.37.42,2.11,1,2.21,1.68a7.88,7.88,0,0,1,0,2.17,7.69,7.69,0,0,0,0,2c.07.59.61,1,1.61,1.12.94,1.19.34,2.64-1.8,4.33-.55.45-1.07.88-1.57,1.27a28.22,28.22,0,0,1-13.68,4.57A23.32,23.32,0,0,1,9,62.48Q1.3,59.57.33,49.4A40.71,40.71,0,0,1,2.72,29.88,50.18,50.18,0,0,1,12,14.11c3.74-4.44,10.06-10,13.7-11.36A24.65,24.65,0,0,1,39.74.14q8,1,10.47,6.8t-.82,13.83a8.66,8.66,0,0,1-4.26,4.49,11.91,11.91,0,0,1-5.84,1.49c-2.09,0-3.44-.66-4-2A7.06,7.06,0,0,1,35.18,19.87Z"/><path d="M55.28,27A8.15,8.15,0,0,1,60,24.61a8.3,8.3,0,0,1,4.56.56,5.81,5.81,0,0,1,2.92,2.88,5.16,5.16,0,0,1-.26,4.52,34.13,34.13,0,0,0-4,8.08Q61.63,45,60.36,49.4c2.07.87,8,4,14.61-11.94.9-1.69,4-7.25,4-7.25l2.24-3.59a2.65,2.65,0,0,1,1.57-1.83,7.12,7.12,0,0,1,2.43-.41c.87,0,1.76,0,2.65,0s-1.37-1.22-.62-1.71a3.81,3.81,0,0,1,2.65-.57,6.47,6.47,0,0,1,2.77,1,5.71,5.71,0,0,1,1.87,2,2.4,2.4,0,0,1,.11,2.28q-3.14,6.72-8.6,25c-.85,2.74-1.64,5-2.39,6.88A9.28,9.28,0,0,1,79,62.48a13,13,0,0,1-5.35.49,7.18,7.18,0,0,1-4-1.72A2.91,2.91,0,0,1,69,57.77a43.27,43.27,0,0,1-4.33,3.14,13.59,13.59,0,0,1-5.42,1.87,16.14,16.14,0,0,1-6.1-.26,10.62,10.62,0,0,1-5-2.73,7.72,7.72,0,0,1-2.21-5.38Q45.5,42.59,55.28,27Z"/><path d="M131.86,20.84c0-1.49-.52-2.24-1.57-2.24a3.77,3.77,0,0,0-1.42.3c-3.08,1.25-5.93,4.32-7,5.49s-2.06,2.48-3.1,3.92a26.76,26.76,0,0,0-2.7,4.64,31.33,31.33,0,0,0-1.71,4.63q-2.18,8,1.64,10.77a5.39,5.39,0,0,0,3.33,1.08,5.49,5.49,0,0,0,2.84-.71c.72-.44,1.43-.87,2.13-1.27a7.93,7.93,0,0,1,2.43-.86,7.31,7.31,0,0,1,3.44.38c1.37.42,2.1,1,2.2,1.68s3.78,6.3-.22,9.64c-.55.45-1.07.88-1.57,1.27A28.26,28.26,0,0,1,117,64.13a23.32,23.32,0,0,1-9.72-1.65q-7.71-2.91-8.68-13.08A40.72,40.72,0,0,1,101,29.88a50.18,50.18,0,0,1,9.27-15.77q5.61-6.66,11.06-8.68a24.68,24.68,0,0,1,14.06-2.61q8,1.05,10.47,6.8T145,23.45a8.58,8.58,0,0,1-4.26,4.49,11.77,11.77,0,0,1-5.83,1.49q-3.13,0-4-2C130.26,26.13,131.31,22.79,131.86,20.84Z"/><path d="M153.51,27a8.15,8.15,0,0,1,4.67-2.36,8.3,8.3,0,0,1,4.56.56,5.81,5.81,0,0,1,2.92,2.88,5.13,5.13,0,0,1-.27,4.52,34.1,34.1,0,0,0-4,8.08q-1.5,4.34-2.77,8.75c-1.55,3.82,9.59.48,12.68-5.25.9-1.7,5.55-16.34,6.21-16.8a17.49,17.49,0,0,1,9.68-3.21,6.52,6.52,0,0,1,2.77,1,5.71,5.71,0,0,1,1.87,2c.42.77-.94,2.28-1.29,3-2.1,4.48-2.56,10.08-6.2,22.29-.85,2.74-1.64,5-2.39,6.88-1.25,1.54-.08,2.18-2,2.73a30,30,0,0,1-8.09.9,7.18,7.18,0,0,1-4-1.72,2.9,2.9,0,0,1-.67-3.48,43.39,43.39,0,0,1-4.34,3.14,13.49,13.49,0,0,1-5.42,1.87,16.08,16.08,0,0,1-6.09-.26,10.62,10.62,0,0,1-5-2.73,7.72,7.72,0,0,1-2.21-5.38Q143.71,42.59,153.51,27Z"/></g></g></svg>