<svg id="Layer_1" data-name="Layer 1" xmlns="http://www.w3.org/2000/svg" viewBox="0 0 44 51"><title>cucu</title><path d="M29.18,26.23h-9.5a9.5,9.5,0,0,1,0-19h9.5v3h-9.5a6.5,6.5,0,0,0,0,13h9.5Z" transform="translate(-10.18 -7.23)"/><path d="M44.68,26.23a9.52,9.52,0,0,1-9.5-9.5V7.23h3v9.5a6.5,6.5,0,0,0,13,0V7.23h3v9.5A9.51,9.51,0,0,1,44.68,26.23Z" transform="translate(-10.18 -7.23)"/><path d="M29.18,58.23h-9.5a9.5,9.5,0,0,1,0-19h9.5v3h-9.5a6.5,6.5,0,0,0,0,13h9.5Z" transform="translate(-10.18 -7.23)"/><path d="M44.68,58.23a9.52,9.52,0,0,1-9.5-9.5v-9.5h3v9.5a6.5,6.5,0,0,0,13,0v-9.5h3v9.5A9.51,9.51,0,0,1,44.68,58.23Z" transform="translate(-10.18 -7.23)"/><rect y="24" width="44" height="3"/></svg>