<svg xmlns="http://www.w3.org/2000/svg" viewBox="0 0 48.47 47.19">
    <defs>
        <style>.cls-1{fill:#3d5b96;}</style>
    </defs>
    <title>insta</title>
    <g id="Layer_2" data-name="Layer 2">
        <g id="Layer_1-2" data-name="Layer 1">
            <path class="cls-1"
                  d="M48.44,31c-.18-5.92-.32-11.85-.53-17.78A16.78,16.78,0,0,0,46.49,6.1,10.39,10.39,0,0,0,39,.61C32.62-.29,26,.08,19.56.07,16.45.06,4.66-.88,1.89,5a21.78,21.78,0,0,0-1.8,7.47c-.27,2.91.13,19.75.29,24.91.2,6.78,5,8.26,9.81,9.15,5.61,1.05,11.54.61,17.25.68,5.06.05,12.06.26,16.26-2.85,1.78-1.32,2.8-3.73,3.72-5.76C48.52,36.12,48.52,33.57,48.44,31ZM7.13,4.71c2.18-1.37,4.48-1.49,7-1.57s6.25-.09,8.87,0c5.27.15,10.63-.39,15.72,1A8.91,8.91,0,0,1,40.65,5,78.67,78.67,0,0,0,25.78,20.17a17.41,17.41,0,0,0-2.9-2.72l-.17-.14c-1.16-1-2.37-1.92-3.6-2.82L17.17,13C14,10.47,9.52,8,7.09,4.73A.05.05,0,0,0,7.13,4.71ZM45.46,34a11,11,0,0,1-1.21,4.79c-1.65-1.94-6.33-6.48-8-8.42a1.51,1.51,0,0,0-2.12,0,1.53,1.53,0,0,0,0,2.12c1.71,2,6.45,6.62,8.15,8.63A9.53,9.53,0,0,1,38,42.93c-4.78.88-20.67,1.51-23.26,1.18a47.71,47.71,0,0,1-6.71-1.42,6.74,6.74,0,0,1-2.25-1.08c2.47-2.13,6.2-5,8.66-7.14a1.5,1.5,0,0,0,0-2.12,1.54,1.54,0,0,0-2.12,0c-2.34,2-5.95,4.8-8.29,6.82-.8-2.26-.41-5-.58-7.1-.41-5-.64-21,.94-24.2,3.12,2.91,8.16,5.51,12.81,8.93.94.74,6.92,6.29,7.15,6.8.49,1.12,2,.82,2.59,0A74.54,74.54,0,0,1,43.09,6.89a5.18,5.18,0,0,1,1.33,2.17A33.77,33.77,0,0,1,45,16.71l.27,8.84C45.36,28.35,45.6,31.2,45.46,34Z"/>
        </g>
    </g>
</svg>
