<svg xmlns="http://www.w3.org/2000/svg" viewBox="0 0 47.25 47.2"><defs><style>.cls-1{fill:#3d5b96;}</style></defs><title>instagram</title><g id="Layer_2" data-name="Layer 2"><g id="Layer_1-2" data-name="Layer 1"><path class="cls-1" d="M47,21.17c-.14-2.92-.39-5.83-.66-8.74C46.15,9.94,46.28,7,44.58,5a12.84,12.84,0,0,0-3.15-2.47,13.29,13.29,0,0,0-4-1.85C34.37-.09,31,.07,27.91.08,21.48.09,15.84-.31,9.48.62,7.28,1,3.07,4,2,6.1A16.85,16.85,0,0,0,.56,13.18C.34,19.11.2,25,0,31c-.08,2.62-.08,5.17,1,7.59a13.1,13.1,0,0,0,4.24,5C9.49,46.7,15,47.22,20,47.16c5.71-.06,11.64.38,17.25-.67,4.77-.89,7.76-5.14,9-9.75C47.56,31.76,47.3,26.27,47,21.17ZM44,32.08c-.29,3.5-1.18,8.83-4.58,10.61-2,1.06-4.49,1.15-6.71,1.43-2.59.32-5.18-.37-7.79-.18-4.77.36-9.88.61-14.47-1C6.49,41.55,3.22,38.35,3,34c-.14-2.8.1-5.64.18-8.44s.18-5.89.26-8.84a34.41,34.41,0,0,1,.6-7.66c.59-2.23,3.72-4.37,5.7-4.92,5.09-1.4,9.45-.86,14.72-1,2.62-.08,5.25-.07,7.87,0s4.79.24,7,1.57A19,19,0,0,1,41.69,6.3a4.1,4.1,0,0,1,1.39,3c.28,2.57.5,5.15.7,7.73A95.6,95.6,0,0,1,44,32.08Z"/><path class="cls-1" d="M39.65,9.2a2.93,2.93,0,0,0-.61-1,2.61,2.61,0,0,0-.44-.37A2.34,2.34,0,0,0,38,7.53a1.13,1.13,0,0,0-.32-.06,1.66,1.66,0,0,0-.32,0,1.64,1.64,0,0,0-.58.09,1.83,1.83,0,0,0-.55.25,2.76,2.76,0,0,0-.46.37A3.86,3.86,0,0,0,35,9.48a1.81,1.81,0,0,0-.23.53,2.27,2.27,0,0,0,.56,2.11,2,2,0,0,0,.62.46,2.78,2.78,0,0,0,.5.21,4,4,0,0,0,.59.09h.2a2.89,2.89,0,0,0,.59-.08,2.36,2.36,0,0,0,.52-.21.54.54,0,0,0,.18-.11,3,3,0,0,0,.82-.84,2.65,2.65,0,0,0,.31-.76,3.94,3.94,0,0,0,.09-.6,2.09,2.09,0,0,0,0-.25A3,3,0,0,0,39.65,9.2Z"/><path class="cls-1" d="M34.31,17.44A12.42,12.42,0,0,0,21.92,11.3a1.37,1.37,0,0,0-1.06,0,12.71,12.71,0,0,0-8.44,10.37c-.58,4.89,1.92,10.57,6.77,12.31a17,17,0,0,0,3.81.74,25.17,25.17,0,0,0,4.59.21,7.9,7.9,0,0,0,6-3.47A13.45,13.45,0,0,0,34.31,17.44ZM32,28.18a6.17,6.17,0,0,1-3.43,3.53,9.18,9.18,0,0,1-3.18.17,31.66,31.66,0,0,1-3.5-.35,6.87,6.87,0,0,1-4.88-3,9.74,9.74,0,0,1-1.68-5.27,9.6,9.6,0,0,1,5.91-8.95,1.51,1.51,0,0,0,.67,0A9.35,9.35,0,0,1,31,17.8,10.37,10.37,0,0,1,32,28.18Z"/></g></g></svg>