<svg xmlns="http://www.w3.org/2000/svg" viewBox="0 0 47.86 47.21"><defs><style>.cls-1{fill:#3d5b96;}</style></defs><title>face</title><g id="Layer_2" data-name="Layer 2"><g id="Layer_1-2" data-name="Layer 1"><path class="cls-1" d="M46.81,8.61a13.23,13.23,0,0,0-4.24-5C38.37.47,32.89,0,27.83,0,22.12.07,16.22-.19,10.58.67c-6.93,1.07-8.3,4.85-9.51,9.46-1.59,6-1,21.45-.76,22.55.65,2.9.16,6.87,2.12,9.77,2.24,3.3,5.71,4,7.17,4.32,3,.73,7.23.33,10.34.32h1a1.89,1.89,0,0,0,1.89-1.71,1.53,1.53,0,0,0,0-.27c-.19-5.93.18-10.62.08-16.55a1.48,1.48,0,0,0-1.41-1.42c-.58-.07-1.42,0-2-.1l-.06-.29c0-1.47,0-2.69.12-4.09l2.72,0h0a1.43,1.43,0,0,0,1-.44,1.29,1.29,0,0,0,.4-1,29.33,29.33,0,0,1,.55-6.38c.29-1.15.74-2.9,1.73-3.68.8-.63,2.18-.6,3.26-.62h.66c1,0,2,0,3.21.06v.05l.35,0,.26,0c.05.95.08,1.92.06,2.88-.64,0-1.21.08-1.75.15l-.12,0a3.71,3.71,0,0,0-2.36.88,3.44,3.44,0,0,0-.7,2.45c0,.72-.1,2.11-.13,2.83l0,1.45a1.36,1.36,0,0,0,.39,1,1.43,1.43,0,0,0,1,.45l3.42,0,.18,3.77h0a20.47,20.47,0,0,0-4.59.53,1.44,1.44,0,0,0-1.05,1.38c-.09,5.7.06,11.48.45,17.18h0a1.61,1.61,0,0,0,1.67,1.47c2.38-.11,6.7.18,8.2.06a8.26,8.26,0,0,0,7.49-5.11A16.78,16.78,0,0,0,47.3,35c.21-5.93.35-12.86.53-18.79C47.91,13.59,47.91,11,46.81,8.61ZM44.68,25l-.16,3.54c-.31,3,.11,7.48-.71,10.57A6.68,6.68,0,0,1,38.1,44c-2.44.34-4.59-.12-6.82,0-.29-4.77-.41-9.6-.37-14.36a16.66,16.66,0,0,1,4.29-.19h.08a1.39,1.39,0,0,0,.92-.4,1.42,1.42,0,0,0,.44-1l-.33-6.67a1.45,1.45,0,0,0-1.43-1.42h-3.3l.11-2.45a1.53,1.53,0,0,0,0-.18c0-.15,0-.59,0-.74a6.47,6.47,0,0,1,1-.09H33c.53-.05,1.1-.08,1.73-.08h.48A1.44,1.44,0,0,0,36.6,15a43.63,43.63,0,0,0-.11-5.48A1.49,1.49,0,0,0,35.13,7.9a43.62,43.62,0,0,0-6.43-.15c-1.58.08-3.37.17-4.7,1.39a9.52,9.52,0,0,0-2.35,4.43,34.82,34.82,0,0,0-.81,6.19l-2.49.11h0A1.44,1.44,0,0,0,17,20.94a44.74,44.74,0,0,0-.11,7.2,1.44,1.44,0,0,0,1.4,1.42L20,29.8h.06c.09,4.93-.32,9-.2,13.91a.44.44,0,0,1-.43.46c-1,0-3.06-.13-3.93-.16-2.52-.08-5.64,0-7.85-1.33a18.56,18.56,0,0,1-2.35-1.58,4.15,4.15,0,0,1-1.39-3c-.28-2.57-.49-5.15-.69-7.73-.38-5,.22-10.29.63-15.29C4.15,11.59,5,6.25,8.45,4.47c2-1,4.49-1.15,6.71-1.42,2.59-.33,5.18.37,7.78.18,4.78-.36,9.89-.61,14.48,1,3.95,1.39,7.22,4.59,7.43,8.93C45,17.1,44.5,21.12,44.68,25Z"/></g></g></svg>